<svg width="294" height="200" viewBox="0 0 294 200" fill="none" xmlns="http://www.w3.org/2000/svg">
<g clip-path="url(#clip0)">
<path d="M222.652 9.42275C229.07 5.1397 236.174 0.875288 243.631 0.0186772C244.444 -0.0712848 245.267 0.0197778 246.041 0.285379C246.815 0.550981 247.521 0.984597 248.109 1.55535C248.697 2.12611 249.153 2.81994 249.443 3.58753C249.734 4.35512 249.852 5.17757 249.79 5.99632C249.636 7.99324 249.237 9.96345 248.603 11.8622C250.014 11.755 251.432 11.954 252.761 12.4456C254.089 12.9372 255.296 13.71 256.301 14.7114C258.156 16.8715 257.859 20.838 255.262 21.9554C259.454 21.1174 262.552 26.7226 261.124 30.7822C259.695 34.8418 255.689 37.2812 251.849 39.3296C234.635 48.6406 215.937 56.9274 203.453 72.0857C219.776 63.5196 236.62 56.0336 253.537 48.5475C260.716 45.3632 268.154 42.123 275.796 41.285C276.484 41.209 277.179 41.3089 277.818 41.5754C278.457 41.8418 279.018 42.2662 279.449 42.8089C279.881 43.3516 280.168 43.995 280.285 44.6793C280.402 45.3636 280.345 46.0665 280.119 46.7226C279.664 48.0398 279.041 49.2918 278.264 50.447C279.494 49.6197 281 49.3168 282.453 49.6049C283.905 49.893 285.184 50.7486 286.008 51.9833C286.832 53.218 287.134 54.7308 286.847 56.1888C286.56 57.6468 285.708 58.9307 284.478 59.7579C285.718 60.0927 286.833 60.784 287.687 61.7468C288.54 62.7095 289.095 63.9018 289.282 65.1769C289.254 66.4345 289.41 67.6895 289.746 68.9013C290.386 69.938 291.138 70.8998 291.99 71.7691C293.994 74.5066 292.955 78.6034 290.581 81.0801C288.034 83.3347 284.967 84.9157 281.658 85.6798C259.969 92.5152 237.556 96.7775 214.879 98.3799C233.673 100.654 252.708 99.8679 271.252 96.0522C276.316 95.0093 281.584 93.743 286.592 95.028C286.891 96.1099 286.834 97.2598 286.43 98.3066C286.025 99.3535 285.295 100.241 284.348 100.838C286.203 100.13 287.538 102.812 287.817 104.842C288.41 109.143 288.985 113.445 289.579 117.728C289.829 118.888 289.829 120.088 289.579 121.248C288.874 123.613 286.333 124.805 284.014 125.661C270.751 130.652 256.598 133.929 242.463 132.924C214.397 130.931 188.242 110.093 181.249 82.6444C173.031 50.5215 198.463 25.5866 222.652 9.42275Z" fill="#FFC235"/>
<path d="M228.365 13.501C216.53 19.8883 206.884 29.609 197.906 39.5717C194.197 43.6499 190.487 48.3241 190.487 53.799" stroke="#FFDF93" stroke-width="1.09" stroke-linecap="round" stroke-linejoin="round"/>
<path d="M210.279 43.296C202.746 49.9603 196.431 57.8946 191.618 66.7411" stroke="#FFDF93" stroke-width="1.09" stroke-linecap="round" stroke-linejoin="round"/>
<path d="M236.026 36.1453C227.572 41.4078 220.132 48.1576 214.063 56.0707" stroke="#FFDF93" stroke-width="1.09" stroke-linecap="round" stroke-linejoin="round"/>
<path d="M240.367 21.4524C234.086 24.348 228.201 28.0405 222.856 32.4394" stroke="#FFDF93" stroke-width="1.09" stroke-linecap="round" stroke-linejoin="round"/>
<path d="M206.477 62.4767C202.876 66.1248 199.663 70.1375 196.886 74.4507" stroke="#FFDF93" stroke-width="1.09" stroke-linecap="round" stroke-linejoin="round"/>
<path d="M246.766 58.4357C237.308 61.597 228.111 65.4946 219.257 70.0931" stroke="#FFDF93" stroke-width="1.09" stroke-linecap="round" stroke-linejoin="round"/>
<path d="M240.459 71.7132C224.915 76.4308 209.247 80.7138 193.455 84.5623" stroke="#FFDF93" stroke-width="1.09" stroke-linecap="round" stroke-linejoin="round"/>
<path d="M213.08 91.4711L196.793 92.458" stroke="#FFDF93" stroke-width="1.09" stroke-linecap="round" stroke-linejoin="round"/>
<path d="M244.225 84.2645C239.688 85.6654 235.082 86.8277 230.424 87.7468" stroke="#FFDF93" stroke-width="1.09" stroke-linecap="round" stroke-linejoin="round"/>
<path d="M271.104 68.175L256.449 72.3091" stroke="#FFDF93" stroke-width="1.09" stroke-linecap="round" stroke-linejoin="round"/>
<path d="M279.08 74.9535C272.42 77.5272 265.486 79.3205 258.416 80.298" stroke="#FFDF93" stroke-width="1.09" stroke-linecap="round" stroke-linejoin="round"/>
<path d="M269.712 57.5419C262.515 59.0937 255.404 60.9994 248.38 63.2588" stroke="#FFDF93" stroke-width="1.09" stroke-linecap="round" stroke-linejoin="round"/>
<path d="M270.937 108.976L266.039 109.758C263.09 110.223 260.141 110.689 257.154 110.894C251.58 111.303 245.975 110.819 240.552 109.46" stroke="#FFDF93" stroke-width="1.09" stroke-linecap="round" stroke-linejoin="round"/>
<path d="M255.299 124.637C242.84 123.905 230.496 121.832 218.478 118.454" stroke="#FFDF93" stroke-width="1.09" stroke-linecap="round" stroke-linejoin="round"/>
<path d="M231.5 113.147C224.951 112.617 218.568 110.808 212.709 107.821" stroke="#FFDF93" stroke-width="1.09" stroke-linecap="round" stroke-linejoin="round"/>
<path d="M209.073 113.184C204.23 111.183 199.973 107.979 196.701 103.873" stroke="#FFDF93" stroke-width="1.09" stroke-linecap="round" stroke-linejoin="round"/>
<path d="M186.443 64.2271C185.346 67.4835 184.942 70.9345 185.255 74.3575" stroke="#FFDF93" stroke-width="1.09" stroke-linecap="round" stroke-linejoin="round"/>
<path d="M279.636 117.635C276.394 118.851 272.904 119.254 269.471 118.808" stroke="#FFDF93" stroke-width="1.09" stroke-linecap="round" stroke-linejoin="round"/>
<path d="M203.026 68.1005C200.986 65.7169 192.305 78.6778 189.93 80.7076C191.039 77.6065 191.506 74.3108 191.302 71.0223C191.098 67.7338 190.227 64.5218 188.743 61.5829C188.535 61.0607 188.146 60.6312 187.649 60.3724C186.628 60.0372 185.794 61.1359 185.33 62.1229C183.085 67.2998 183.475 73.2029 183.994 78.8826C182.77 73.6499 181.527 68.3985 180.284 63.1657C180.075 61.9243 179.628 60.7353 178.967 59.6648C178.624 59.1369 178.139 58.7181 177.567 58.4575C176.995 58.1969 176.361 58.1054 175.74 58.1936C173.773 58.6406 173.198 61.1546 173.217 63.1657C173.384 72.365 178.096 80.7821 180.451 89.6648C181.972 95.3817 182.529 101.341 184.31 106.983C185.193 109.642 186.215 112.253 187.37 114.804C187.743 115.932 188.379 116.954 189.225 117.784C189.659 118.183 190.216 118.42 190.803 118.458C191.39 118.495 191.972 118.329 192.453 117.989C192.316 114.163 191.368 110.411 189.671 106.983C190.483 111.358 192.94 115.252 196.534 117.858C197.203 118.467 198.024 118.881 198.91 119.055C199.796 119.229 200.713 119.156 201.561 118.845C202.21 118.391 202.704 117.747 202.976 117C203.248 116.254 203.285 115.442 203.082 114.674C202.632 113.151 201.874 111.737 200.856 110.521L191.396 97.635C193.357 99.409 195.602 100.838 198.036 101.862C199.571 102.659 201.353 102.826 203.008 102.328C203.403 102.182 203.762 101.951 204.057 101.65C204.353 101.35 204.579 100.987 204.719 100.589C204.859 100.19 204.91 99.7654 204.867 99.3449C204.825 98.9244 204.69 98.5185 204.473 98.1564C203.775 97.5046 202.881 97.1049 201.932 97.0205C200.077 96.6667 194.864 95.1583 193.084 94.8045C195.885 94.0596 202.192 94.4506 204.974 93.6871C206.277 93.499 207.465 92.8362 208.313 91.8249C210.576 88.3985 205.623 86.2383 203.063 86.2383C201.208 86.2383 192.212 87.9329 192.212 87.9329C192.472 88.9013 207.274 73.0912 203.026 68.1005Z" fill="#798233"/>
<path d="M190.561 89.5344C130.607 115.416 65.098 125.629 0.14856 119.218" stroke="#798232" stroke-width="1.64" stroke-miterlimit="10"/>
<path d="M16.7317 149.087V189.385H37.1364V198.808H6.08423V149.087H16.7317Z" fill="#798232"/>
<path d="M42.5901 150.056C42.5738 149.303 42.7123 148.556 42.9968 147.859C43.2812 147.163 43.7057 146.533 44.2436 146.009C44.7815 145.485 45.4212 145.077 46.123 144.812C46.8247 144.547 47.5733 144.431 48.322 144.469C49.1111 144.356 49.9153 144.415 50.6799 144.641C51.4445 144.867 52.1518 145.256 52.7539 145.78C53.356 146.305 53.8388 146.953 54.1697 147.681C54.5007 148.409 54.6719 149.2 54.6719 150C54.6719 150.8 54.5007 151.591 54.1697 152.319C53.8388 153.047 53.356 153.695 52.7539 154.22C52.1518 154.744 51.4445 155.133 50.6799 155.359C49.9153 155.585 49.1111 155.644 48.322 155.531C47.5782 155.588 46.8307 155.489 46.1279 155.238C45.4251 154.987 44.7826 154.59 44.2422 154.074C43.7018 153.558 43.2755 152.933 42.9909 152.241C42.7063 151.549 42.5697 150.804 42.5901 150.056ZM53.6086 160.894V198.808H43.1095V160.894H53.6086Z" fill="#798232"/>
<path d="M58.821 195.996L61.6406 188.547C64.9557 190.687 68.7482 191.967 72.6777 192.272C75.2004 192.272 77.2965 191.006 77.2965 188.324C77.2965 185.642 74.7552 184.6 71.6203 183.538C66.0554 181.881 59.934 180.019 59.934 172.179C59.934 164.339 66.5563 159.758 74.0875 159.758C79.3235 159.711 84.382 161.661 88.2408 165.214L83.3994 171.266C80.9583 169.005 77.841 167.617 74.5326 167.318C72.0655 167.318 70.0621 168.585 70.0621 171.043C70.0621 173.501 72.6035 174.86 76.0166 175.978C81.4517 177.84 87.573 179.795 87.573 187.505C87.573 195.568 81.6742 199.832 73.0486 199.832C68.0379 199.949 63.0995 198.617 58.821 195.996Z" fill="#798232"/>
<path d="M91.895 181.527C91.895 168.38 98.5915 159.777 111.613 159.777C116.302 159.956 120.93 160.893 125.322 162.551V191.248L126.064 198.808H117.215L116.603 195.084H116.306C115.242 196.709 113.778 198.03 112.055 198.921C110.333 199.811 108.411 200.241 106.475 200.168C95.1598 200 91.895 191.248 91.895 181.527ZM115.045 186.834V168.063C113.547 167.494 111.954 167.216 110.352 167.244C104.249 167.244 102.172 173.594 102.172 180.913C102.172 186.89 103.507 192.346 108.868 192.346C109.638 192.41 110.413 192.316 111.145 192.07C111.878 191.824 112.554 191.432 113.131 190.917C113.708 190.402 114.176 189.774 114.505 189.073C114.834 188.371 115.017 187.609 115.045 186.834Z" fill="#798232"/>
<path d="M135.672 144.6C137.317 144.321 139.006 144.555 140.514 145.27C142.758 145.791 144.613 147.225 144.02 151.024C143.426 154.823 139.623 161.415 137.62 164.488L132.055 162.775L135.672 144.6Z" fill="#798232"/>
<path d="M144.836 195.996L147.674 188.547C150.981 190.69 154.768 191.97 158.693 192.272C161.215 192.272 163.311 191.006 163.311 188.324C163.311 185.642 160.77 184.6 157.746 183.538C152.182 181.881 146.042 180.019 146.042 172.179C146.042 164.339 152.682 159.758 160.195 159.758C165.431 159.711 170.49 161.661 174.348 165.214L169.507 171.266C167.066 169.005 163.949 167.617 160.64 167.318C158.192 167.318 156.17 168.585 156.17 171.043C156.17 173.501 158.711 174.86 162.143 175.978C167.578 177.84 173.681 179.795 173.681 187.505C173.681 195.568 167.8 199.832 159.156 199.832C154.115 199.96 149.144 198.628 144.836 195.996Z" fill="#798232"/>
<path d="M194.809 186.685V146.853H205.234V160.894H214.935V169.05H205.178V186.313C205.178 190.726 207.2 191.993 209.945 191.993C211.562 191.958 213.137 191.468 214.49 190.577L216.957 197.3C213.922 199.05 210.477 199.957 206.977 199.926C195.773 199.926 194.809 193.426 194.809 186.685Z" fill="#798232"/>
<path d="M218.793 180.782C218.793 169.795 225.193 159.777 237.343 159.777C244.856 159.777 249.697 163.594 249.697 170.764C249.697 181.937 237.343 183.929 229.293 184.227C229.326 185.306 229.573 186.367 230.02 187.348C230.468 188.33 231.106 189.211 231.897 189.942C232.689 190.672 233.617 191.236 234.629 191.601C235.641 191.966 236.715 192.125 237.788 192.067C241.132 191.97 244.367 190.852 247.063 188.864L250.031 195.736C246.048 198.543 241.281 200.01 236.416 199.926C223.932 199.926 218.793 191.993 218.793 180.782ZM240.608 170.987C240.638 170.49 240.562 169.993 240.386 169.527C240.21 169.062 239.938 168.639 239.587 168.287C239.237 167.935 238.816 167.662 238.352 167.485C237.889 167.309 237.393 167.233 236.898 167.263C231.908 167.263 229.293 171.881 229.07 177.263C233.021 177.114 240.608 175.847 240.608 170.987Z" fill="#798232"/>
<path d="M254.242 181.527C254.242 168.38 260.957 159.777 273.979 159.777C278.667 159.956 283.296 160.893 287.687 162.551V191.248L288.429 198.808H279.562L278.968 195.084H278.672C277.607 196.709 276.143 198.03 274.421 198.921C272.698 199.811 270.776 200.241 268.84 200.168C257.599 200 254.242 191.248 254.242 181.527ZM277.41 186.834V168.063C275.911 167.496 274.319 167.218 272.717 167.244C266.614 167.244 264.518 173.594 264.518 180.913C264.518 186.89 265.872 192.346 271.215 192.346C271.986 192.41 272.761 192.316 273.495 192.07C274.229 191.825 274.906 191.433 275.484 190.918C276.063 190.403 276.532 189.776 276.863 189.074C277.194 188.372 277.38 187.61 277.41 186.834Z" fill="#798232"/>
</g>
<defs>
<clipPath id="clip0">
<rect width="293.103" height="200" fill="white"/>
</clipPath>
</defs>
</svg>
